# xmcd
#
# Track frame offsets: 
#        151
#        20989
#        49357
#        67730
#        86349
#        106049
#        129755
#        162130
#        193584
#        213380
#        230705
#
# Disc length: 3539 seconds
#
# Revision: 14
# Processed by: cddbd v1.5.2PL0 Copyright (c) Steve Scherf et al.
# Submitted via: ExactAudioCopyFreeDBPlugin 1.0
#
DISCID=8c0dd10b
DTITLE=Rory Gallagher - Tattoo
DYEAR=1973
DGENRE=Rock
TTITLE0=Tattoo'd Lady
TTITLE1=Cradle Rock
TTITLE2=20.20 Vision
TTITLE3=They Don't Make Them Like You Anymore
TTITLE4=Livin Like Trucker
TTITLE5=Sleep On A Clothes-Line
TTITLE6=Who's That Coming
TTITLE7=A Million Miles Away
TTITLE8=Admit It
TTITLE9=Tucson, Arizona
TTITLE10=Just A Little Bit More
EXTD=
EXTT0=
EXTT1=
EXTT2=
EXTT3=
EXTT4=
EXTT5=
EXTT6=
EXTT7=
EXTT8=
EXTT9=
EXTT10=
PLAYORDER=
